<svg width="128" height="128" viewBox="0 0 128 128" fill="none" xmlns="http://www.w3.org/2000/svg">
<path d="M42.667 90.667H32V80H42.667V90.667ZM96 90.667H85.333V80H96V90.667ZM21.333 80H10.667V69.333H21.333V80ZM85.333 80H42.667V69.333H85.333V80ZM117.333 80H106.667V69.333H117.333V80ZM42.667 69.333H21.333V58.667H42.667V69.333ZM106.667 69.333H85.333V58.667H106.667V69.333ZM21.333 58.667H10.667V48H21.333V58.667ZM117.333 58.667H106.667V48H117.333V58.667ZM10.667 48H0V37.333H10.667V48ZM128 48H117.333V37.333H128V48Z" fill="black"/>
</svg>
