<svg width="128" height="128" viewBox="0 0 128 128" fill="none" xmlns="http://www.w3.org/2000/svg">
<path d="M85.333 106.667H42.667V96H85.333V106.667ZM42.667 96H21.333V85.333H42.667V96ZM106.667 96H85.333V85.333H106.667V96ZM21.333 85.333H10.667V74.667H21.333V85.333ZM117.333 85.333H106.667V74.667H117.333V85.333ZM74.667 80H53.333V58.667H74.667V80ZM10.667 74.667H0V64H10.667V74.667ZM128 74.667H117.333V64H128V74.667ZM21.333 64H10.667V53.333H21.333V64ZM117.333 64H106.667V53.333H117.333V64ZM42.667 53.333H21.333V42.667H42.667V53.333ZM106.667 53.333H85.333V42.667H106.667V53.333ZM85.333 42.667H42.667V32H85.333V42.667Z" fill="black"/>
</svg>
